<?xml version="1.0" encoding="utf-8"?>
<!-- Generator: Adobe Illustrator 16.0.0, SVG Export Plug-In . SVG Version: 6.00 Build 0)  -->
<!DOCTYPE svg PUBLIC "-//W3C//DTD SVG 1.1//EN" "http://www.w3.org/Graphics/SVG/1.1/DTD/svg11.dtd">
<svg version="1.1" id="Calque_1" xmlns="http://www.w3.org/2000/svg" xmlns:xlink="http://www.w3.org/1999/xlink" x="0px" y="0px"
	 width="1836px" height="1434px" viewBox="0 0 1836 1434" enable-background="new 0 0 1836 1434" xml:space="preserve">
<line fill="none" stroke="#000000" stroke-width="2" x1="251.105" y1="425.959" x2="948.303" y2="425.959"/>
<line fill="none" stroke="#000000" stroke-width="2" x1="1061.537" y1="183.786" x2="1061.537" y2="562.318"/>
<line fill="none" stroke="#000000" stroke-width="2" x1="945.701" y1="425.959" x2="1165.794" y2="685.047"/>
<line fill="none" stroke="#000000" stroke-width="2" x1="362.95" y1="561.138" x2="1056.816" y2="561.008"/>
<polyline fill="#3AAA35" stroke="#000000" stroke-width="0.5" points="485.709,51.788 251.106,51.788 251.106,48.312 
	485.709,48.312 "/>
<polyline fill="#009FE3" stroke="#000000" stroke-width="0.5" points="717.565,48.312 948.305,48.312 948.305,51.788 
	717.565,51.788 "/>
<polyline fill="#3AAA35" stroke="#000000" stroke-width="0.5" points="485.709,69.686 251.105,69.686 251.105,66.209 
	485.709,66.209 "/>
<polyline fill="#009FE3" stroke="#000000" stroke-width="0.5" points="717.565,66.209 948.305,66.209 948.305,69.686 
	717.565,69.686 "/>
<polyline fill="#3AAA35" stroke="#000000" stroke-width="0.5" points="485.709,90.106 251.105,90.106 251.105,86.63 485.709,86.63 
	"/>
<polyline fill="#009FE3" stroke="#000000" stroke-width="0.5" points="717.565,86.63 948.305,86.63 948.305,90.106 717.565,90.106 
	"/>
<polyline fill="#3AAA35" stroke="#000000" stroke-width="0.5" points="485.709,109.742 251.105,109.742 251.105,106.266 
	485.709,106.266 "/>
<polyline fill="#009FE3" stroke="#000000" stroke-width="0.5" points="717.565,106.266 948.305,106.266 948.305,109.742 
	717.565,109.742 "/>
<polyline fill="#3AAA35" stroke="#000000" stroke-width="0.5" points="485.709,129.377 251.105,129.377 251.105,125.902 
	485.709,125.902 "/>
<polyline fill="#009FE3" stroke="#000000" stroke-width="0.5" points="717.565,125.902 948.305,125.902 948.305,129.377 
	717.565,129.377 "/>
<polyline fill="#3AAA35" stroke="#000000" stroke-width="0.5" points="485.709,149.013 251.105,149.013 251.105,145.537 
	485.709,145.537 "/>
<polyline fill="#009FE3" stroke="#000000" stroke-width="0.5" points="717.565,145.537 948.305,145.537 948.305,149.013 
	717.565,149.013 "/>
<polyline fill="#3AAA35" stroke="#000000" stroke-width="0.5" points="485.708,168.649 251.107,168.649 251.107,165.173 
	485.709,165.173 "/>
<polyline fill="#009FE3" stroke="#000000" stroke-width="0.5" points="717.565,165.173 948.305,165.173 948.305,168.649 
	717.565,168.649 "/>
<polyline fill="#3AAA35" stroke="#000000" stroke-width="0.5" points="485.709,188.284 251.105,188.284 251.105,184.808 
	485.709,184.808 "/>
<polyline fill="#009FE3" stroke="#000000" stroke-width="0.5" points="717.565,184.808 948.305,184.808 948.305,188.284 
	717.565,188.284 "/>
<polyline fill="#3AAA35" stroke="#000000" stroke-width="0.5" points="485.709,207.92 251.107,207.92 251.107,204.444 
	485.708,204.444 "/>
<polyline fill="#009FE3" stroke="#000000" stroke-width="0.5" points="717.565,204.444 948.305,204.444 948.305,207.92 
	717.565,207.92 "/>
<polyline fill="#3AAA35" stroke="#000000" stroke-width="0.5" points="485.709,227.555 251.105,227.555 251.105,224.079 
	485.709,224.079 "/>
<polyline fill="#009FE3" stroke="#000000" stroke-width="0.5" points="717.565,224.079 948.303,224.079 948.303,227.555 
	717.565,227.555 "/>
<polyline fill="#3AAA35" stroke="#000000" stroke-width="0.5" points="485.708,247.191 251.105,247.191 251.105,243.715 
	485.708,243.715 "/>
<polyline fill="#009FE3" stroke="#000000" stroke-width="0.5" points="717.565,243.715 948.303,243.715 948.303,247.191 
	717.565,247.191 "/>
<polyline fill="#3AAA35" stroke="#000000" stroke-width="0.5" points="485.709,266.826 251.105,266.826 251.105,263.351 
	485.709,263.351 "/>
<polyline fill="#009FE3" stroke="#000000" stroke-width="0.5" points="717.565,263.351 948.303,263.351 948.303,266.826 
	717.565,266.826 "/>
<polyline fill="#3AAA35" stroke="#000000" stroke-width="0.5" points="485.708,286.462 251.107,286.462 251.107,282.986 
	485.709,282.986 "/>
<polyline fill="#009FE3" stroke="#000000" stroke-width="0.5" points="717.565,282.986 948.305,282.986 948.305,286.462 
	717.566,286.462 "/>
<polyline fill="#3AAA35" stroke="#000000" stroke-width="0.5" points="485.709,327.781 251.105,327.781 251.105,324.306 
	485.709,324.306 "/>
<polyline fill="#009FE3" stroke="#000000" stroke-width="0.5" points="717.565,324.306 948.303,324.306 948.303,327.781 
	717.565,327.781 "/>
<polyline fill="#3AAA35" stroke="#000000" stroke-width="0.5" points="485.709,347.417 251.105,347.417 251.105,343.941 
	485.708,343.941 "/>
<polyline fill="#009FE3" stroke="#000000" stroke-width="0.5" points="717.565,343.941 948.303,343.941 948.303,347.417 
	717.565,347.417 "/>
<polyline fill="#3AAA35" stroke="#000000" stroke-width="0.5" points="485.709,367.053 251.105,367.053 251.105,363.577 
	485.709,363.577 "/>
<polyline fill="#009FE3" stroke="#000000" stroke-width="0.5" points="717.565,363.577 948.303,363.577 948.303,367.053 
	717.565,367.053 "/>
<polyline fill="#3AAA35" stroke="#000000" stroke-width="0.5" points="485.709,386.688 251.105,386.688 251.105,383.212 
	485.709,383.212 "/>
<polyline fill="#009FE3" stroke="#000000" stroke-width="0.5" points="717.565,383.212 948.303,383.212 948.303,386.688 
	717.565,386.688 "/>
<polyline fill="#3AAA35" stroke="#000000" stroke-width="0.5" points="485.709,306.098 251.105,306.098 251.105,302.622 
	485.709,302.622 "/>
<polyline fill="#009FE3" stroke="#000000" stroke-width="0.5" points="717.565,302.622 948.303,302.622 948.303,306.098 
	717.565,306.098 "/>
<path fill="none" stroke="#000000" stroke-width="0.5" d="M251.107,322.497"/>
<path fill="none" stroke="#000000" stroke-width="0.5" d="M251.107,306.337"/>
<polyline fill="#3AAA35" stroke="#000000" stroke-width="0.5" points="485.708,406.324 251.105,406.324 251.105,402.848 
	485.709,402.848 "/>
<polyline fill="#009FE3" stroke="#000000" stroke-width="0.5" points="717.565,402.848 948.303,402.848 948.303,406.324 
	717.565,406.324 "/>
<polyline fill="#3AAA35" stroke="#000000" stroke-width="0.5" points="485.709,425.959 251.105,425.959 251.105,422.483 
	485.709,422.483 "/>
<polyline fill="#009FE3" stroke="#000000" stroke-width="0.5" points="717.565,422.483 948.303,422.483 948.303,425.959 
	717.565,425.959 "/>
<polyline fill="#E30613" stroke="#000000" stroke-width="0.5" points="717.565,66.209 485.709,66.209 485.709,69.686 
	717.565,69.686 "/>
<polyline fill="#E30613" stroke="#000000" stroke-width="0.5" points="717.565,86.63 485.709,86.63 485.709,90.106 717.565,90.106 
	"/>
<polyline fill="#E30613" stroke="#000000" stroke-width="0.5" points="717.565,106.266 485.709,106.266 485.709,109.742 
	717.565,109.742 "/>
<polyline fill="#E30613" stroke="#000000" stroke-width="0.5" points="717.565,125.902 485.709,125.902 485.709,129.377 
	717.565,129.377 "/>
<polyline fill="#E30613" stroke="#000000" stroke-width="0.5" points="717.565,145.537 485.709,145.537 485.709,149.013 
	717.565,149.013 "/>
<polyline fill="#E30613" stroke="#000000" stroke-width="0.5" points="485.709,165.173 717.565,165.173 717.565,168.649 
	485.708,168.649 "/>
<polyline fill="#E30613" stroke="#000000" stroke-width="0.5" points="717.565,184.808 485.709,184.808 485.709,188.284 
	717.565,188.284 "/>
<polyline fill="#E30613" stroke="#000000" stroke-width="0.5" points="485.708,204.444 717.565,204.444 717.565,207.92 
	485.709,207.92 "/>
<polyline fill="#E30613" stroke="#000000" stroke-width="0.5" points="717.565,224.079 485.709,224.079 485.709,227.555 
	717.565,227.555 "/>
<polyline fill="#E30613" stroke="#000000" stroke-width="0.5" points="717.565,243.715 485.708,243.715 485.708,247.191 
	717.565,247.191 "/>
<polyline fill="#E30613" stroke="#000000" stroke-width="0.5" points="717.565,263.351 485.709,263.351 485.709,266.826 
	717.565,266.826 "/>
<polyline fill="#E30613" stroke="#000000" stroke-width="0.5" points="485.709,282.986 717.565,282.986 717.566,286.462 
	485.708,286.462 "/>
<polyline fill="#E30613" stroke="#000000" stroke-width="0.5" points="717.565,324.306 485.709,324.306 485.709,327.781 
	717.565,327.781 "/>
<polyline fill="#E30613" stroke="#000000" stroke-width="0.5" points="717.565,343.941 485.708,343.941 485.709,347.417 
	717.565,347.417 "/>
<polyline fill="#E30613" stroke="#000000" stroke-width="0.5" points="717.565,363.577 485.709,363.577 485.709,367.053 
	717.565,367.053 "/>
<polyline fill="#E30613" stroke="#000000" stroke-width="0.5" points="717.565,383.212 485.709,383.212 485.709,386.688 
	717.565,386.688 "/>
<polyline fill="#E30613" stroke="#000000" stroke-width="0.5" points="717.565,302.622 485.709,302.622 485.709,306.098 
	717.565,306.098 "/>
<polyline fill="#E30613" stroke="#000000" stroke-width="0.5" points="717.565,402.848 485.709,402.848 485.708,406.324 
	717.565,406.324 "/>
<polyline fill="#E30613" stroke="#000000" stroke-width="0.5" points="717.565,422.483 485.709,422.483 485.709,425.959 
	717.565,425.959 "/>
<rect x="485.709" y="48.312" fill="#E30613" stroke="#000000" stroke-width="0.5" width="231.856" height="3.476"/>
<rect x="713.354" y="184.53" fill="#009FE3" stroke="#000000" stroke-width="0.5" width="3.721" height="376.146"/>
<rect x="718.693" y="184.786" fill="#009FE3" stroke="#000000" stroke-width="0.5" width="3.721" height="376.149"/>
<rect x="725.889" y="184.786" fill="#009FE3" stroke="#000000" stroke-width="0.5" width="3.723" height="376.149"/>
<rect x="733.578" y="184.53" fill="#009FE3" stroke="#000000" stroke-width="0.5" width="3.722" height="376.146"/>
<rect x="742.51" y="184.786" fill="#009FE3" stroke="#000000" stroke-width="0.5" width="3.72" height="376.149"/>
<rect x="753.671" y="184.786" fill="#009FE3" stroke="#000000" stroke-width="0.5" width="3.722" height="376.149"/>
<rect x="762.473" y="184.53" fill="#009FE3" stroke="#000000" stroke-width="0.5" width="3.72" height="376.146"/>
<rect x="775.256" y="184.786" fill="#009FE3" stroke="#000000" stroke-width="0.5" width="3.72" height="376.149"/>
<rect x="1024.318" y="184.786" fill="#3AAA35" stroke="#000000" stroke-width="0.5" width="3.723" height="376.149"/>
<rect x="808" y="184.786" fill="#009FE3" stroke="#000000" stroke-width="0.5" width="3.722" height="376.149"/>
<rect x="825.119" y="184.786" fill="#009FE3" stroke="#000000" stroke-width="0.5" width="3.72" height="376.149"/>
<rect x="843.97" y="184.786" fill="#009FE3" stroke="#000000" stroke-width="0.5" width="3.722" height="376.149"/>
<rect x="862.824" y="184.53" fill="#3AAA35" stroke="#000000" stroke-width="0.5" width="3.721" height="376.146"/>
<rect x="881.678" y="184.786" fill="#3AAA35" stroke="#000000" stroke-width="0.5" width="3.721" height="376.149"/>
<rect x="903.012" y="184.786" fill="#3AAA35" stroke="#000000" stroke-width="0.5" width="3.721" height="376.149"/>
<rect x="927.321" y="184.53" fill="#3AAA35" stroke="#000000" stroke-width="0.5" width="3.723" height="376.146"/>
<rect x="956.098" y="184.53" fill="#3AAA35" stroke="#000000" stroke-width="0.5" width="3.723" height="376.146"/>
<rect x="988.596" y="184.53" fill="#3AAA35" stroke="#000000" stroke-width="0.5" width="3.723" height="376.146"/>
<rect x="790.387" y="184.786" fill="#009FE3" stroke="#000000" stroke-width="0.5" width="3.722" height="376.149"/>
<rect x="1056.816" y="184.786" fill="#3AAA35" stroke="#000000" stroke-width="0.5" width="3.721" height="376.149"/>
<rect x="709.634" y="184.658" fill="#009FE3" stroke="#000000" stroke-width="0.5" width="3.721" height="376.147"/>
<rect x="704.292" y="184.914" fill="#009FE3" stroke="#000000" stroke-width="0.5" width="3.722" height="376.147"/>
<rect x="697.098" y="184.914" fill="#009FE3" stroke="#000000" stroke-width="0.5" width="3.721" height="376.147"/>
<rect x="689.409" y="184.658" fill="#009FE3" stroke="#000000" stroke-width="0.5" width="3.721" height="376.147"/>
<rect x="680.477" y="184.914" fill="#009FE3" stroke="#000000" stroke-width="0.5" width="3.723" height="376.147"/>
<rect x="669.314" y="184.914" fill="#009FE3" stroke="#000000" stroke-width="0.5" width="3.721" height="376.147"/>
<rect x="660.514" y="184.658" fill="#009FE3" stroke="#000000" stroke-width="0.5" width="3.721" height="376.147"/>
<rect x="647.732" y="184.914" fill="#009FE3" stroke="#000000" stroke-width="0.5" width="3.722" height="376.147"/>
<rect x="398.666" y="184.914" fill="#E30613" stroke="#000000" stroke-width="0.5" width="3.722" height="376.147"/>
<rect x="614.987" y="184.914" fill="#009FE3" stroke="#000000" stroke-width="0.5" width="3.721" height="376.147"/>
<rect x="597.87" y="184.914" fill="#009FE3" stroke="#000000" stroke-width="0.5" width="3.721" height="376.147"/>
<rect x="579.015" y="184.914" fill="#009FE3" stroke="#000000" stroke-width="0.5" width="3.722" height="376.147"/>
<rect x="560.162" y="184.658" fill="#E30613" stroke="#000000" stroke-width="0.5" width="3.72" height="376.147"/>
<rect x="541.309" y="184.914" fill="#E30613" stroke="#000000" stroke-width="0.5" width="3.722" height="376.147"/>
<rect x="519.974" y="184.914" fill="#E30613" stroke="#000000" stroke-width="0.5" width="3.722" height="376.147"/>
<rect x="495.663" y="184.658" fill="#E30613" stroke="#000000" stroke-width="0.5" width="3.72" height="376.147"/>
<rect x="466.887" y="184.658" fill="#E30613" stroke="#000000" stroke-width="0.5" width="3.721" height="376.147"/>
<rect x="434.389" y="184.658" fill="#E30613" stroke="#000000" stroke-width="0.5" width="3.721" height="376.147"/>
<rect x="632.598" y="184.914" fill="#009FE3" stroke="#000000" stroke-width="0.5" width="3.722" height="376.147"/>
<rect x="366.168" y="184.914" fill="#E30613" stroke="#000000" stroke-width="0.5" width="3.722" height="376.147"/>
<rect x="466.204" y="302.622" fill="#009FE3" stroke="#000000" stroke-width="0.5" width="3.481" height="382.164"/>
<rect x="471.198" y="302.882" fill="#009FE3" stroke="#000000" stroke-width="0.5" width="3.479" height="382.165"/>
<rect x="477.925" y="302.882" fill="#009FE3" stroke="#000000" stroke-width="0.5" width="3.479" height="382.165"/>
<rect x="485.116" y="302.622" fill="#009FE3" stroke="#000000" stroke-width="0.5" width="3.479" height="382.164"/>
<rect x="493.466" y="302.882" fill="#009FE3" stroke="#000000" stroke-width="0.5" width="3.479" height="382.165"/>
<rect x="503.905" y="302.882" fill="#009FE3" stroke="#000000" stroke-width="0.5" width="3.479" height="382.165"/>
<rect x="512.133" y="302.622" fill="#009FE3" stroke="#000000" stroke-width="0.5" width="3.479" height="382.164"/>
<rect x="524.085" y="302.882" fill="#009FE3" stroke="#000000" stroke-width="0.5" width="3.479" height="382.165"/>
<rect x="756.976" y="302.882" fill="#3AAA35" stroke="#000000" stroke-width="0.5" width="3.479" height="382.165"/>
<rect x="554.705" y="302.882" fill="#009FE3" stroke="#000000" stroke-width="0.5" width="3.479" height="382.165"/>
<rect x="570.709" y="302.882" fill="#009FE3" stroke="#000000" stroke-width="0.5" width="3.48" height="382.165"/>
<rect x="588.34" y="302.882" fill="#009FE3" stroke="#000000" stroke-width="0.5" width="3.479" height="382.165"/>
<rect x="605.968" y="302.622" fill="#009FE3" stroke="#000000" stroke-width="0.5" width="3.479" height="382.164"/>
<rect x="623.598" y="302.882" fill="#009FE3" stroke="#000000" stroke-width="0.5" width="3.479" height="382.165"/>
<rect x="643.547" y="302.882" fill="#009FE3" stroke="#000000" stroke-width="0.5" width="3.479" height="382.165"/>
<rect x="666.279" y="302.622" fill="#009FE3" stroke="#000000" stroke-width="0.5" width="3.479" height="382.164"/>
<rect x="693.187" y="302.622" fill="#3AAA35" stroke="#000000" stroke-width="0.5" width="3.479" height="382.164"/>
<rect x="723.574" y="302.622" fill="#3AAA35" stroke="#000000" stroke-width="0.5" width="3.478" height="382.164"/>
<rect x="538.236" y="302.882" fill="#009FE3" stroke="#000000" stroke-width="0.5" width="3.478" height="382.165"/>
<rect x="787.363" y="302.882" fill="#3AAA35" stroke="#000000" stroke-width="0.5" width="3.48" height="382.165"/>
<rect x="1160.258" y="302.753" fill="#E30613" stroke="#000000" stroke-width="0.5" width="3.479" height="382.163"/>
<rect x="1155.264" y="303.012" fill="#E30613" stroke="#000000" stroke-width="0.5" width="3.479" height="382.164"/>
<rect x="1148.537" y="303.012" fill="#E30613" stroke="#000000" stroke-width="0.5" width="3.48" height="382.164"/>
<rect x="1141.346" y="302.753" fill="#E30613" stroke="#000000" stroke-width="0.5" width="3.479" height="382.163"/>
<rect x="1132.995" y="303.012" fill="#E30613" stroke="#000000" stroke-width="0.5" width="3.479" height="382.164"/>
<rect x="1122.557" y="303.012" fill="#E30613" stroke="#000000" stroke-width="0.5" width="3.479" height="382.164"/>
<rect x="1114.328" y="302.753" fill="#E30613" stroke="#000000" stroke-width="0.5" width="3.479" height="382.163"/>
<rect x="1102.377" y="303.012" fill="#E30613" stroke="#000000" stroke-width="0.5" width="3.479" height="382.164"/>
<rect x="869.486" y="303.012" fill="#3AAA35" stroke="#000000" stroke-width="0.5" width="3.479" height="382.164"/>
<rect x="1071.757" y="303.012" fill="#E30613" stroke="#000000" stroke-width="0.5" width="3.479" height="382.164"/>
<rect x="1055.752" y="303.012" fill="#E30613" stroke="#000000" stroke-width="0.5" width="3.479" height="382.164"/>
<rect x="1038.121" y="303.012" fill="#E30613" stroke="#000000" stroke-width="0.5" width="3.48" height="382.164"/>
<rect x="1020.494" y="302.753" fill="#E30613" stroke="#000000" stroke-width="0.5" width="3.479" height="382.163"/>
<rect x="1002.864" y="303.012" fill="#E30613" stroke="#000000" stroke-width="0.5" width="3.479" height="382.164"/>
<rect x="982.916" y="303.012" fill="#E30613" stroke="#000000" stroke-width="0.5" width="3.479" height="382.164"/>
<rect x="960.182" y="302.753" fill="#E30613" stroke="#000000" stroke-width="0.5" width="3.48" height="382.163"/>
<rect x="933.275" y="302.753" fill="#3AAA35" stroke="#000000" stroke-width="0.5" width="3.479" height="382.163"/>
<rect x="902.889" y="302.753" fill="#3AAA35" stroke="#000000" stroke-width="0.5" width="3.479" height="382.163"/>
<rect x="1088.226" y="303.012" fill="#E30613" stroke="#000000" stroke-width="0.5" width="3.48" height="382.164"/>
<rect x="839.098" y="303.012" fill="#3AAA35" stroke="#000000" stroke-width="0.5" width="3.479" height="382.164"/>
<g>
	<polyline fill="#3AAA35" stroke="#000000" stroke-width="0.5" points="421.906,876.781 187.303,876.781 187.303,873.306 
		421.906,873.306 	"/>
	<polyline fill="#009FE3" stroke="#000000" stroke-width="0.5" points="653.762,873.306 884.502,873.306 884.502,876.781 
		653.762,876.781 	"/>
	<polyline fill="#3AAA35" stroke="#000000" stroke-width="0.5" points="421.906,894.679 187.302,894.679 187.302,891.202 
		421.906,891.202 	"/>
	<polyline fill="#009FE3" stroke="#000000" stroke-width="0.5" points="653.762,891.202 884.502,891.202 884.502,894.679 
		653.762,894.679 	"/>
	<polyline fill="#3AAA35" stroke="#000000" stroke-width="0.5" points="421.906,915.1 187.302,915.1 187.302,911.624 
		421.906,911.624 	"/>
	<polyline fill="#009FE3" stroke="#000000" stroke-width="0.5" points="653.762,911.624 884.502,911.624 884.502,915.1 
		653.762,915.1 	"/>
	<polyline fill="#3AAA35" stroke="#000000" stroke-width="0.5" points="421.906,934.735 187.302,934.735 187.302,931.259 
		421.906,931.259 	"/>
	<polyline fill="#009FE3" stroke="#000000" stroke-width="0.5" points="653.762,931.259 884.502,931.259 884.502,934.735 
		653.762,934.735 	"/>
	<polyline fill="#3AAA35" stroke="#000000" stroke-width="0.5" points="421.906,954.37 187.302,954.37 187.302,950.896 
		421.906,950.896 	"/>
	<polyline fill="#009FE3" stroke="#000000" stroke-width="0.5" points="653.762,950.896 884.502,950.896 884.502,954.37 
		653.762,954.37 	"/>
	<polyline fill="#3AAA35" stroke="#000000" stroke-width="0.5" points="421.906,974.007 187.302,974.007 187.302,970.53 
		421.906,970.53 	"/>
	<polyline fill="#009FE3" stroke="#000000" stroke-width="0.5" points="653.762,970.53 884.502,970.53 884.502,974.007 
		653.762,974.007 	"/>
	<polyline fill="#3AAA35" stroke="#000000" stroke-width="0.5" points="421.904,993.642 187.304,993.642 187.304,990.166 
		421.906,990.166 	"/>
	<polyline fill="#009FE3" stroke="#000000" stroke-width="0.5" points="653.762,990.166 884.502,990.166 884.502,993.642 
		653.762,993.642 	"/>
	<polyline fill="#3AAA35" stroke="#000000" stroke-width="0.5" points="421.906,1013.277 187.302,1013.277 187.302,1009.802 
		421.906,1009.802 	"/>
	<polyline fill="#009FE3" stroke="#000000" stroke-width="0.5" points="653.762,1009.802 884.502,1009.802 884.502,1013.277 
		653.762,1013.277 	"/>
	<polyline fill="#3AAA35" stroke="#000000" stroke-width="0.5" points="421.906,1032.913 187.304,1032.913 187.304,1029.437 
		421.904,1029.437 	"/>
	<polyline fill="#009FE3" stroke="#000000" stroke-width="0.5" points="653.762,1029.437 884.502,1029.437 884.502,1032.913 
		653.762,1032.913 	"/>
	<polyline fill="#3AAA35" stroke="#000000" stroke-width="0.5" points="421.906,1052.548 187.302,1052.548 187.302,1049.072 
		421.906,1049.072 	"/>
	<polyline fill="#009FE3" stroke="#000000" stroke-width="0.5" points="653.762,1049.072 884.5,1049.072 884.5,1052.548 
		653.762,1052.548 	"/>
	<polyline fill="#3AAA35" stroke="#000000" stroke-width="0.5" points="421.905,1072.185 187.302,1072.185 187.302,1068.708 
		421.905,1068.708 	"/>
	<polyline fill="#009FE3" stroke="#000000" stroke-width="0.5" points="653.762,1068.708 884.5,1068.708 884.5,1072.185 
		653.762,1072.185 	"/>
	<polyline fill="#3AAA35" stroke="#000000" stroke-width="0.5" points="421.906,1091.819 187.302,1091.819 187.302,1088.344 
		421.906,1088.344 	"/>
	<polyline fill="#009FE3" stroke="#000000" stroke-width="0.5" points="653.762,1088.344 884.5,1088.344 884.5,1091.819 
		653.762,1091.819 	"/>
	<polyline fill="#3AAA35" stroke="#000000" stroke-width="0.5" points="421.905,1111.456 187.304,1111.456 187.304,1107.979 
		421.906,1107.979 	"/>
	<polyline fill="#009FE3" stroke="#000000" stroke-width="0.5" points="653.762,1107.979 884.502,1107.979 884.502,1111.456 
		653.763,1111.456 	"/>
	<polyline fill="#3AAA35" stroke="#000000" stroke-width="0.5" points="421.906,1152.774 187.302,1152.774 187.302,1149.299 
		421.906,1149.299 	"/>
	<polyline fill="#009FE3" stroke="#000000" stroke-width="0.5" points="653.762,1149.299 884.5,1149.299 884.5,1152.774 
		653.762,1152.774 	"/>
	<polyline fill="#3AAA35" stroke="#000000" stroke-width="0.5" points="421.906,1172.41 187.302,1172.41 187.302,1168.935 
		421.905,1168.935 	"/>
	<polyline fill="#009FE3" stroke="#000000" stroke-width="0.5" points="653.762,1168.935 884.5,1168.935 884.5,1172.41 
		653.762,1172.41 	"/>
	<polyline fill="#3AAA35" stroke="#000000" stroke-width="0.5" points="421.906,1192.046 187.302,1192.046 187.302,1188.569 
		421.906,1188.569 	"/>
	<polyline fill="#009FE3" stroke="#000000" stroke-width="0.5" points="653.762,1188.569 884.5,1188.569 884.5,1192.046 
		653.762,1192.046 	"/>
	<polyline fill="#3AAA35" stroke="#000000" stroke-width="0.5" points="421.906,1211.681 187.302,1211.681 187.302,1208.205 
		421.906,1208.205 	"/>
	<polyline fill="#009FE3" stroke="#000000" stroke-width="0.5" points="653.762,1208.205 884.5,1208.205 884.5,1211.681 
		653.762,1211.681 	"/>
	<polyline fill="#3AAA35" stroke="#000000" stroke-width="0.5" points="421.906,1131.091 187.302,1131.091 187.302,1127.614 
		421.906,1127.614 	"/>
	<polyline fill="#009FE3" stroke="#000000" stroke-width="0.5" points="653.762,1127.614 884.5,1127.614 884.5,1131.091 
		653.762,1131.091 	"/>
	<path fill="none" stroke="#000000" stroke-width="0.5" d="M187.304,1147.489"/>
	<path fill="none" stroke="#000000" stroke-width="0.5" d="M187.304,1131.331"/>
	<polyline fill="#3AAA35" stroke="#000000" stroke-width="0.5" points="421.905,1231.317 187.302,1231.317 187.302,1227.841 
		421.906,1227.841 	"/>
	<polyline fill="#009FE3" stroke="#000000" stroke-width="0.5" points="653.762,1227.841 884.5,1227.841 884.5,1231.317 
		653.762,1231.317 	"/>
	<polyline fill="#3AAA35" stroke="#000000" stroke-width="0.5" points="421.906,1250.952 187.302,1250.952 187.302,1247.476 
		421.906,1247.476 	"/>
	<polyline fill="#009FE3" stroke="#000000" stroke-width="0.5" points="653.762,1247.476 884.5,1247.476 884.5,1250.952 
		653.762,1250.952 	"/>
	<polyline fill="#E30613" stroke="#000000" stroke-width="0.5" points="653.762,891.202 421.906,891.202 421.906,894.679 
		653.762,894.679 	"/>
	<polyline fill="#E30613" stroke="#000000" stroke-width="0.5" points="653.762,911.624 421.906,911.624 421.906,915.1 
		653.762,915.1 	"/>
	<polyline fill="#E30613" stroke="#000000" stroke-width="0.5" points="653.762,931.259 421.906,931.259 421.906,934.735 
		653.762,934.735 	"/>
	<polyline fill="#E30613" stroke="#000000" stroke-width="0.5" points="653.762,950.896 421.906,950.896 421.906,954.37 
		653.762,954.37 	"/>
	<polyline fill="#E30613" stroke="#000000" stroke-width="0.5" points="653.762,970.53 421.906,970.53 421.906,974.007 
		653.762,974.007 	"/>
	<polyline fill="#E30613" stroke="#000000" stroke-width="0.5" points="421.906,990.166 653.762,990.166 653.762,993.642 
		421.904,993.642 	"/>
	<polyline fill="#E30613" stroke="#000000" stroke-width="0.5" points="653.762,1009.802 421.906,1009.802 421.906,1013.277 
		653.762,1013.277 	"/>
	<polyline fill="#E30613" stroke="#000000" stroke-width="0.5" points="421.904,1029.437 653.762,1029.437 653.762,1032.913 
		421.906,1032.913 	"/>
	<polyline fill="#E30613" stroke="#000000" stroke-width="0.5" points="653.762,1049.072 421.906,1049.072 421.906,1052.548 
		653.762,1052.548 	"/>
	<polyline fill="#E30613" stroke="#000000" stroke-width="0.5" points="653.762,1068.708 421.905,1068.708 421.905,1072.185 
		653.762,1072.185 	"/>
	<polyline fill="#E30613" stroke="#000000" stroke-width="0.5" points="653.762,1088.344 421.906,1088.344 421.906,1091.819 
		653.762,1091.819 	"/>
	<polyline fill="#E30613" stroke="#000000" stroke-width="0.5" points="421.906,1107.979 653.762,1107.979 653.763,1111.456 
		421.905,1111.456 	"/>
	<polyline fill="#E30613" stroke="#000000" stroke-width="0.5" points="653.762,1149.299 421.906,1149.299 421.906,1152.774 
		653.762,1152.774 	"/>
	<polyline fill="#E30613" stroke="#000000" stroke-width="0.5" points="653.762,1168.935 421.905,1168.935 421.906,1172.41 
		653.762,1172.41 	"/>
	<polyline fill="#E30613" stroke="#000000" stroke-width="0.5" points="653.762,1188.569 421.906,1188.569 421.906,1192.046 
		653.762,1192.046 	"/>
	<polyline fill="#E30613" stroke="#000000" stroke-width="0.5" points="653.762,1208.205 421.906,1208.205 421.906,1211.681 
		653.762,1211.681 	"/>
	<polyline fill="#E30613" stroke="#000000" stroke-width="0.5" points="653.762,1127.614 421.906,1127.614 421.906,1131.091 
		653.762,1131.091 	"/>
	<polyline fill="#E30613" stroke="#000000" stroke-width="0.5" points="653.762,1227.841 421.906,1227.841 421.905,1231.317 
		653.762,1231.317 	"/>
	<polyline fill="#E30613" stroke="#000000" stroke-width="0.5" points="653.762,1247.476 421.906,1247.476 421.906,1250.952 
		653.762,1250.952 	"/>
	<rect x="421.906" y="873.306" fill="#E30613" stroke="#000000" stroke-width="0.5" width="231.856" height="3.476"/>
</g>
<g>
	<rect x="532.945" y="867.318" fill="#009FE3" stroke="#000000" stroke-width="0.5" width="3.721" height="383.52"/>
	<rect x="538.284" y="867.581" fill="#009FE3" stroke="#000000" stroke-width="0.5" width="3.721" height="383.521"/>
	<rect x="545.479" y="867.581" fill="#009FE3" stroke="#000000" stroke-width="0.5" width="3.723" height="383.521"/>
	<rect x="553.168" y="867.318" fill="#009FE3" stroke="#000000" stroke-width="0.5" width="3.722" height="383.52"/>
	<rect x="562.1" y="867.581" fill="#009FE3" stroke="#000000" stroke-width="0.5" width="3.72" height="383.521"/>
	<rect x="573.261" y="867.581" fill="#009FE3" stroke="#000000" stroke-width="0.5" width="3.722" height="383.521"/>
	<rect x="582.063" y="867.318" fill="#009FE3" stroke="#000000" stroke-width="0.5" width="3.72" height="383.52"/>
	<rect x="594.846" y="867.581" fill="#009FE3" stroke="#000000" stroke-width="0.5" width="3.72" height="383.521"/>
	<rect x="843.909" y="867.581" fill="#3AAA35" stroke="#000000" stroke-width="0.5" width="3.723" height="383.521"/>
	<rect x="627.59" y="867.581" fill="#009FE3" stroke="#000000" stroke-width="0.5" width="3.722" height="383.521"/>
	<rect x="644.709" y="867.581" fill="#009FE3" stroke="#000000" stroke-width="0.5" width="3.72" height="383.521"/>
	<rect x="663.56" y="867.581" fill="#3AAA35" stroke="#000000" stroke-width="0.5" width="3.722" height="383.521"/>
	<rect x="682.415" y="867.318" fill="#3AAA35" stroke="#000000" stroke-width="0.5" width="3.721" height="383.52"/>
	<rect x="701.268" y="867.581" fill="#3AAA35" stroke="#000000" stroke-width="0.5" width="3.721" height="383.521"/>
	<rect x="722.602" y="867.581" fill="#3AAA35" stroke="#000000" stroke-width="0.5" width="3.721" height="383.521"/>
	<rect x="746.912" y="867.318" fill="#3AAA35" stroke="#000000" stroke-width="0.5" width="3.723" height="383.52"/>
	<rect x="775.688" y="867.318" fill="#3AAA35" stroke="#000000" stroke-width="0.5" width="3.723" height="383.52"/>
	<rect x="808.186" y="867.318" fill="#3AAA35" stroke="#000000" stroke-width="0.5" width="3.723" height="383.52"/>
	<rect x="609.977" y="867.581" fill="#009FE3" stroke="#000000" stroke-width="0.5" width="3.722" height="383.521"/>
	<rect x="876.406" y="867.581" fill="#3AAA35" stroke="#000000" stroke-width="0.5" width="3.721" height="383.521"/>
	<rect x="529.224" y="867.449" fill="#009FE3" stroke="#000000" stroke-width="0.5" width="3.721" height="383.52"/>
	<rect x="523.882" y="867.711" fill="#009FE3" stroke="#000000" stroke-width="0.5" width="3.722" height="383.52"/>
	<rect x="516.688" y="867.711" fill="#009FE3" stroke="#000000" stroke-width="0.5" width="3.721" height="383.52"/>
	<rect x="509" y="867.449" fill="#009FE3" stroke="#000000" stroke-width="0.5" width="3.721" height="383.52"/>
	<rect x="500.067" y="867.711" fill="#009FE3" stroke="#000000" stroke-width="0.5" width="3.723" height="383.52"/>
	<rect x="488.905" y="867.711" fill="#009FE3" stroke="#000000" stroke-width="0.5" width="3.721" height="383.52"/>
	<rect x="480.104" y="867.449" fill="#009FE3" stroke="#000000" stroke-width="0.5" width="3.721" height="383.52"/>
	<rect x="467.323" y="867.711" fill="#009FE3" stroke="#000000" stroke-width="0.5" width="3.722" height="383.52"/>
	<rect x="218.256" y="867.711" fill="#E30613" stroke="#000000" stroke-width="0.5" width="3.722" height="383.52"/>
	<rect x="434.578" y="867.711" fill="#009FE3" stroke="#000000" stroke-width="0.5" width="3.721" height="383.52"/>
	<rect x="417.46" y="867.711" fill="#009FE3" stroke="#000000" stroke-width="0.5" width="3.721" height="383.52"/>
	<rect x="398.605" y="867.711" fill="#E30613" stroke="#000000" stroke-width="0.5" width="3.722" height="383.52"/>
	<rect x="379.752" y="867.449" fill="#E30613" stroke="#000000" stroke-width="0.5" width="3.72" height="383.52"/>
	<rect x="360.899" y="867.711" fill="#E30613" stroke="#000000" stroke-width="0.5" width="3.722" height="383.52"/>
	<rect x="339.564" y="867.711" fill="#E30613" stroke="#000000" stroke-width="0.5" width="3.722" height="383.52"/>
	<rect x="315.253" y="867.449" fill="#E30613" stroke="#000000" stroke-width="0.5" width="3.72" height="383.52"/>
	<rect x="286.477" y="867.449" fill="#E30613" stroke="#000000" stroke-width="0.5" width="3.721" height="383.52"/>
	<rect x="253.979" y="867.449" fill="#E30613" stroke="#000000" stroke-width="0.5" width="3.721" height="383.52"/>
	<rect x="452.188" y="867.711" fill="#009FE3" stroke="#000000" stroke-width="0.5" width="3.722" height="383.52"/>
	<rect x="185.758" y="867.711" fill="#E30613" stroke="#000000" stroke-width="0.5" width="3.722" height="383.52"/>
</g>
<g>
	<rect x="182.318" y="867.062" fill="#009FE3" stroke="#000000" stroke-width="0.5" width="3.481" height="382.051"/>
	<rect x="187.313" y="867.324" fill="#009FE3" stroke="#000000" stroke-width="0.5" width="3.479" height="382.051"/>
	<rect x="194.04" y="867.324" fill="#009FE3" stroke="#000000" stroke-width="0.5" width="3.479" height="382.051"/>
	<rect x="201.23" y="867.062" fill="#009FE3" stroke="#000000" stroke-width="0.5" width="3.479" height="382.051"/>
	<rect x="209.581" y="867.324" fill="#009FE3" stroke="#000000" stroke-width="0.5" width="3.479" height="382.051"/>
	<rect x="220.02" y="867.324" fill="#009FE3" stroke="#000000" stroke-width="0.5" width="3.479" height="382.051"/>
	<rect x="228.248" y="867.062" fill="#009FE3" stroke="#000000" stroke-width="0.5" width="3.479" height="382.051"/>
	<rect x="240.2" y="867.324" fill="#009FE3" stroke="#000000" stroke-width="0.5" width="3.479" height="382.051"/>
	<rect x="473.09" y="867.324" fill="#3AAA35" stroke="#000000" stroke-width="0.5" width="3.479" height="382.051"/>
	<rect x="270.82" y="867.324" fill="#009FE3" stroke="#000000" stroke-width="0.5" width="3.479" height="382.051"/>
	<rect x="286.824" y="867.324" fill="#009FE3" stroke="#000000" stroke-width="0.5" width="3.48" height="382.051"/>
	<rect x="304.455" y="867.324" fill="#009FE3" stroke="#000000" stroke-width="0.5" width="3.479" height="382.051"/>
	<rect x="322.083" y="867.062" fill="#009FE3" stroke="#000000" stroke-width="0.5" width="3.479" height="382.051"/>
	<rect x="339.712" y="867.324" fill="#009FE3" stroke="#000000" stroke-width="0.5" width="3.479" height="382.051"/>
	<rect x="359.662" y="867.324" fill="#009FE3" stroke="#000000" stroke-width="0.5" width="3.479" height="382.051"/>
	<rect x="382.394" y="867.062" fill="#009FE3" stroke="#000000" stroke-width="0.5" width="3.479" height="382.051"/>
	<rect x="409.301" y="867.062" fill="#3AAA35" stroke="#000000" stroke-width="0.5" width="3.479" height="382.051"/>
	<rect x="439.689" y="867.062" fill="#3AAA35" stroke="#000000" stroke-width="0.5" width="3.478" height="382.051"/>
	<rect x="254.351" y="867.324" fill="#009FE3" stroke="#000000" stroke-width="0.5" width="3.478" height="382.051"/>
	<rect x="503.478" y="867.324" fill="#3AAA35" stroke="#000000" stroke-width="0.5" width="3.48" height="382.051"/>
	<rect x="876.373" y="867.195" fill="#E30613" stroke="#000000" stroke-width="0.5" width="3.479" height="382.049"/>
	<rect x="871.379" y="867.453" fill="#E30613" stroke="#000000" stroke-width="0.5" width="3.479" height="382.051"/>
	<rect x="864.652" y="867.453" fill="#E30613" stroke="#000000" stroke-width="0.5" width="3.48" height="382.051"/>
	<rect x="857.461" y="867.195" fill="#E30613" stroke="#000000" stroke-width="0.5" width="3.479" height="382.049"/>
	<rect x="849.11" y="867.453" fill="#E30613" stroke="#000000" stroke-width="0.5" width="3.48" height="382.051"/>
	<rect x="838.671" y="867.453" fill="#E30613" stroke="#000000" stroke-width="0.5" width="3.479" height="382.051"/>
	<rect x="830.443" y="867.195" fill="#E30613" stroke="#000000" stroke-width="0.5" width="3.479" height="382.049"/>
	<rect x="818.492" y="867.453" fill="#E30613" stroke="#000000" stroke-width="0.5" width="3.479" height="382.051"/>
	<rect x="585.601" y="867.453" fill="#3AAA35" stroke="#000000" stroke-width="0.5" width="3.479" height="382.051"/>
	<rect x="787.872" y="867.453" fill="#E30613" stroke="#000000" stroke-width="0.5" width="3.479" height="382.051"/>
	<rect x="771.867" y="867.453" fill="#E30613" stroke="#000000" stroke-width="0.5" width="3.479" height="382.051"/>
	<rect x="754.236" y="867.453" fill="#E30613" stroke="#000000" stroke-width="0.5" width="3.48" height="382.051"/>
	<rect x="736.609" y="867.195" fill="#E30613" stroke="#000000" stroke-width="0.5" width="3.479" height="382.049"/>
	<rect x="718.979" y="867.453" fill="#E30613" stroke="#000000" stroke-width="0.5" width="3.479" height="382.051"/>
	<rect x="699.031" y="867.453" fill="#E30613" stroke="#000000" stroke-width="0.5" width="3.479" height="382.051"/>
	<rect x="676.296" y="867.195" fill="#E30613" stroke="#000000" stroke-width="0.5" width="3.48" height="382.049"/>
	<rect x="649.39" y="867.195" fill="#3AAA35" stroke="#000000" stroke-width="0.5" width="3.479" height="382.049"/>
	<rect x="619.003" y="867.195" fill="#3AAA35" stroke="#000000" stroke-width="0.5" width="3.479" height="382.049"/>
	<rect x="804.34" y="867.453" fill="#E30613" stroke="#000000" stroke-width="0.5" width="3.48" height="382.051"/>
	<rect x="555.212" y="867.453" fill="#3AAA35" stroke="#000000" stroke-width="0.5" width="3.479" height="382.051"/>
</g>
<line fill="none" stroke="#000000" stroke-width="2" x1="251.105" y1="425.959" x2="466.204" y2="685.047"/>
<line fill="none" stroke="#000000" stroke-width="2" x1="251.105" y1="425.959" x2="251.105" y2="46.766"/>
<line fill="none" stroke="#000000" stroke-width="2" x1="948.305" y1="51.788" x2="948.305" y2="425.959"/>
<line fill="none" stroke="#000000" stroke-width="2" x1="1165.794" y1="685.047" x2="1165.794" y2="302.753"/>
<line fill="none" stroke="#000000" stroke-width="2" x1="946.305" y1="48.312" x2="1163.794" y2="302.753"/>
<line fill="none" stroke="#000000" stroke-width="2" x1="251.106" y1="48.312" x2="466.204" y2="302.622"/>
<line fill="none" stroke="#000000" stroke-width="2" x1="466.204" y1="685.047" x2="1165.794" y2="685.047"/>
<line fill="none" stroke="#000000" stroke-width="2" x1="366.168" y1="184.921" x2="1060.537" y2="184.791"/>
<line fill="none" stroke="#000000" stroke-width="2" x1="366.168" y1="184.921" x2="366.168" y2="561.061"/>
<line fill="none" stroke="#000000" stroke-width="2" x1="466.204" y1="302.622" x2="1165.794" y2="302.622"/>
<line fill="none" stroke="#000000" stroke-width="2" x1="251.106" y1="47.312" x2="948.305" y2="47.312"/>
<rect x="182.318" y="867.062" fill="none" stroke="#000000" stroke-width="2" width="702.182" height="383.89"/>
<line fill="none" stroke="#000000" stroke-width="2" x1="466.204" y1="302.622" x2="466.204" y2="684.785"/>
</svg>
