<?xml version="1.0" encoding="utf-8"?>
<!-- Generator: Adobe Illustrator 16.0.0, SVG Export Plug-In . SVG Version: 6.00 Build 0)  -->
<!DOCTYPE svg PUBLIC "-//W3C//DTD SVG 1.1//EN" "http://www.w3.org/Graphics/SVG/1.1/DTD/svg11.dtd">
<svg version="1.1" id="Calque_1" xmlns="http://www.w3.org/2000/svg" xmlns:xlink="http://www.w3.org/1999/xlink" x="0px" y="0px"
	 width="1700.79px" height="1133.86px" viewBox="0 0 1700.79 1133.86" enable-background="new 0 0 1700.79 1133.86"
	 xml:space="preserve">
<symbol  id="Flèche_26" viewBox="-22.86 -13.14 45.72 26.28">
	<polygon fill="none" points="-22.86,-13.14 22.86,-13.14 22.86,13.14 -22.86,13.14 	"/>
	<g>
		<polygon points="-22.86,-6.339 0.069,-6.339 0.069,-13.14 22.86,0.001 0.069,13.14 0.069,6.339 -22.86,6.339 		"/>
	</g>
</symbol>
<rect x="57" y="20" fill="#FFFFFF" stroke="#000000" stroke-width="2" stroke-miterlimit="10" width="695" height="326.667"/>
<line fill="none" stroke="#000000" stroke-width="2" stroke-miterlimit="10" x1="278" y1="20" x2="278" y2="346.667"/>
<line fill="none" stroke="#000000" stroke-width="2" stroke-miterlimit="10" x1="523.667" y1="20" x2="523.667" y2="346.667"/>
<rect x="104.5" y="379" fill="#FFFFFF" stroke="#000000" stroke-width="2" stroke-miterlimit="10" width="695" height="326.666"/>
<line fill="none" stroke="#000000" stroke-width="2" stroke-miterlimit="10" x1="325.5" y1="379" x2="325.5" y2="705.666"/>
<line fill="none" stroke="#000000" stroke-width="2" stroke-miterlimit="10" x1="571.166" y1="379" x2="571.166" y2="705.666"/>
<rect x="200.333" y="738.333" fill="#FFFFFF" stroke="#000000" stroke-width="2" stroke-miterlimit="10" width="695" height="326.666"/>
<line fill="none" stroke="#000000" stroke-width="2" stroke-miterlimit="10" x1="421.333" y1="738.333" x2="421.333" y2="1064.999"/>
<line fill="none" stroke="#000000" stroke-width="2" stroke-miterlimit="10" x1="666.999" y1="738.333" x2="666.999" y2="1064.999"/>
<rect x="298.667" y="878.333" fill="none" width="75" height="85"/>
<text transform="matrix(1 0 0 1 298.6641 920.9316)" font-family="'MyriadPro-Regular'" font-size="60">A1</text>
<rect x="511.333" y="878.333" fill="none" width="85" height="100"/>
<text transform="matrix(1 0 0 1 511.3301 920.9316)" font-family="'MyriadPro-Regular'" font-size="60">A2</text>
<rect x="770" y="874.166" fill="none" width="96.667" height="93.334"/>
<text transform="matrix(1 0 0 1 769.9961 916.7637)" font-family="'MyriadPro-Regular'" font-size="60">A3</text>
<rect x="799.166" y="125.75" fill="none" stroke="#000000" stroke-width="2" stroke-miterlimit="10" width="270.834" height="165.916"/>
<line fill="none" stroke="#000000" stroke-width="2" stroke-miterlimit="10" x1="887" y1="125.75" x2="887" y2="291.666"/>
<line fill="none" stroke="#000000" stroke-width="2" stroke-miterlimit="10" x1="979.666" y1="125.75" x2="979.666" y2="291.666"/>
<rect x="817.167" y="189" fill="none" width="75" height="85"/>
<text transform="matrix(1 0 0 1 817.1665 231.5996)" fill="#009FE3" font-family="'MyriadPro-Regular'" font-size="60">A1</text>
<rect x="1097.834" y="188.667" fill="none" width="85" height="100"/>
<text transform="matrix(1 0 0 1 1097.832 231.2666)" fill="#3AAA35" font-family="'MyriadPro-Regular'" font-size="60">A2</text>
<rect x="1385.167" y="191" fill="none" width="96.666" height="93.334"/>
<text transform="matrix(1 0 0 1 1385.166 233.6006)" fill="#E30613" font-family="'MyriadPro-Regular'" font-size="60">A3</text>
<rect x="906.834" y="192" fill="none" width="90" height="93.333"/>
<text transform="matrix(1 0 0 1 906.833 234.5996)" fill="#009FE3" font-family="'MyriadPro-Regular'" font-size="60">B2</text>
<rect x="996.834" y="192.334" fill="none" width="91.667" height="86.666"/>
<text transform="matrix(1 0 0 1 996.834 234.9336)" fill="#009FE3" font-family="'MyriadPro-Regular'" font-size="60">C3</text>
<rect x="1375.583" y="125.75" fill="none" stroke="#000000" stroke-width="2" stroke-miterlimit="10" width="270.834" height="165.916"/>
<line fill="none" stroke="#000000" stroke-width="2" stroke-miterlimit="10" x1="1463.417" y1="125.75" x2="1463.417" y2="291.666"/>
<line fill="none" stroke="#000000" stroke-width="2" stroke-miterlimit="10" x1="1556.083" y1="125.75" x2="1556.083" y2="291.666"/>
<rect x="1087.834" y="125.75" fill="none" stroke="#000000" stroke-width="2" stroke-miterlimit="10" width="270.834" height="165.916"/>
<line fill="none" stroke="#000000" stroke-width="2" stroke-miterlimit="10" x1="1175.668" y1="125.75" x2="1175.668" y2="291.666"/>
<line fill="none" stroke="#000000" stroke-width="2" stroke-miterlimit="10" x1="1268.334" y1="125.75" x2="1268.334" y2="291.666"/>
<rect x="1484.501" y="193.708" fill="none" width="98.333" height="95"/>
<text transform="matrix(1 0 0 1 1484.5 236.3076)" fill="#E30613" font-family="'MyriadPro-Regular'" font-size="60">B1</text>
<rect x="1572.581" y="191.167" fill="none" width="101.668" height="85"/>
<text transform="matrix(1 0 0 1 1572.5801 233.7661)" fill="#E30613" font-family="'MyriadPro-Regular'" font-size="60">C2</text>
<rect x="1193.834" y="186.5" fill="none" width="85" height="90"/>
<text transform="matrix(1 0 0 1 1193.834 229.0991)" fill="#3AAA35" font-family="'MyriadPro-Regular'" font-size="60">B3</text>
<rect x="1286.501" y="189.5" fill="none" width="86.667" height="98.334"/>
<text transform="matrix(1 0 0 1 1286.5 232.1006)" fill="#3AAA35" font-family="'MyriadPro-Regular'" font-size="60">C1</text>
<line fill="none" stroke="#000000" stroke-miterlimit="10" x1="452" y1="573.334" x2="596.333" y2="214.208"/>
<line fill="none" stroke="#000000" stroke-miterlimit="10" x1="524.167" y1="840" x2="646.666" y2="515"/>
<line fill="none" stroke="#000000" stroke-miterlimit="10" x1="646.666" y1="515" x2="138.333" y2="226.667"/>
<line fill="none" stroke="#000000" stroke-miterlimit="10" x1="755" y1="851.667" x2="228.333" y2="491.667"/>
<line fill="none" stroke="#000000" stroke-miterlimit="10" x1="228.333" y1="491.667" x2="392.5" y2="226.667"/>
<rect x="842.666" y="87.833" fill="none" width="227.334" height="45"/>
<text transform="matrix(1 0 0 1 842.666 102.7432)" font-family="'MyriadPro-Regular'" font-size="21">Paillasson EAU</text>
<rect x="1144.333" y="86.167" fill="none" width="196.667" height="41.667"/>
<text transform="matrix(1 0 0 1 1144.333 101.0767)"><tspan x="0" y="0" font-family="'MyriadPro-Regular'" font-size="21">Paillassson FOULI</tspan><tspan x="152.04" y="0" font-family="'MyriadPro-Regular'" font-size="21">-</tspan><tspan x="0" y="25.2" font-family="'MyriadPro-Regular'" font-size="21">NIERS</tspan></text>
<rect x="1422.666" y="90.334" fill="none" width="176.667" height="33.333"/>
<text transform="matrix(1 0 0 1 1422.666 105.2437)" font-family="'MyriadPro-Regular'" font-size="21">Paillasson monstre</text>
<rect x="832.423" y="423.334" fill="none" stroke="#000000" stroke-width="2" stroke-miterlimit="10" width="222.477" height="136.291"/>
<line fill="none" stroke="#000000" stroke-width="2" stroke-miterlimit="10" x1="904.574" y1="423.334" x2="904.574" y2="559.625"/>
<line fill="none" stroke="#000000" stroke-width="2" stroke-miterlimit="10" x1="980.694" y1="423.334" x2="980.694" y2="559.625"/>
<rect x="869.458" y="568.334" fill="none" stroke="#000000" stroke-width="2" stroke-miterlimit="10" width="222.476" height="136.291"/>
<line fill="none" stroke="#000000" stroke-width="2" stroke-miterlimit="10" x1="941.609" y1="568.334" x2="941.609" y2="704.625"/>
<line fill="none" stroke="#000000" stroke-width="2" stroke-miterlimit="10" x1="1017.729" y1="568.334" x2="1017.729" y2="704.625"/>
<rect x="918.976" y="715" fill="none" stroke="#000000" stroke-width="2" stroke-miterlimit="10" width="222.477" height="136.292"/>
<line fill="none" stroke="#000000" stroke-width="2" stroke-miterlimit="10" x1="991.127" y1="715" x2="991.127" y2="851.292"/>
<line fill="none" stroke="#000000" stroke-width="2" stroke-miterlimit="10" x1="1067.247" y1="715" x2="1067.247" y2="851.292"/>
<rect x="1102.249" y="422.5" fill="none" stroke="#000000" stroke-width="2" stroke-miterlimit="10" width="222.477" height="136.291"/>
<line fill="none" stroke="#000000" stroke-width="2" stroke-miterlimit="10" x1="1174.4" y1="422.5" x2="1174.4" y2="558.791"/>
<line fill="none" stroke="#000000" stroke-width="2" stroke-miterlimit="10" x1="1250.521" y1="422.5" x2="1250.521" y2="558.791"/>
<rect x="1139.284" y="567.5" fill="none" stroke="#000000" stroke-width="2" stroke-miterlimit="10" width="222.476" height="136.291"/>
<line fill="none" stroke="#000000" stroke-width="2" stroke-miterlimit="10" x1="1211.436" y1="567.5" x2="1211.436" y2="703.791"/>
<line fill="none" stroke="#000000" stroke-width="2" stroke-miterlimit="10" x1="1287.556" y1="567.5" x2="1287.556" y2="703.791"/>
<rect x="1188.802" y="714.166" fill="none" stroke="#000000" stroke-width="2" stroke-miterlimit="10" width="222.477" height="136.293"/>
<line fill="none" stroke="#000000" stroke-width="2" stroke-miterlimit="10" x1="1260.953" y1="714.166" x2="1260.953" y2="850.459"/>
<line fill="none" stroke="#000000" stroke-width="2" stroke-miterlimit="10" x1="1337.073" y1="714.166" x2="1337.073" y2="850.459"/>
<rect x="1373.761" y="421.667" fill="none" stroke="#000000" stroke-width="2" stroke-miterlimit="10" width="222.477" height="136.292"/>
<line fill="none" stroke="#000000" stroke-width="2" stroke-miterlimit="10" x1="1445.912" y1="421.667" x2="1445.912" y2="557.959"/>
<line fill="none" stroke="#000000" stroke-width="2" stroke-miterlimit="10" x1="1522.032" y1="421.667" x2="1522.032" y2="557.959"/>
<rect x="1410.796" y="566.668" fill="none" stroke="#000000" stroke-width="2" stroke-miterlimit="10" width="222.476" height="136.291"/>
<line fill="none" stroke="#000000" stroke-width="2" stroke-miterlimit="10" x1="1482.947" y1="566.668" x2="1482.947" y2="702.959"/>
<line fill="none" stroke="#000000" stroke-width="2" stroke-miterlimit="10" x1="1559.067" y1="566.668" x2="1559.067" y2="702.959"/>
<rect x="1460.313" y="713.334" fill="none" stroke="#000000" stroke-width="2" stroke-miterlimit="10" width="222.477" height="136.291"/>
<line fill="none" stroke="#000000" stroke-width="2" stroke-miterlimit="10" x1="1532.465" y1="713.334" x2="1532.465" y2="849.625"/>
<line fill="none" stroke="#000000" stroke-width="2" stroke-miterlimit="10" x1="1608.585" y1="713.334" x2="1608.585" y2="849.625"/>
<rect x="918.976" y="715" fill="#009FE3" stroke="#000000" stroke-width="2" stroke-miterlimit="10" width="72.151" height="136.292"/>
<rect x="941.609" y="568.334" fill="#009FE3" stroke="#000000" stroke-width="2" stroke-miterlimit="10" width="76.12" height="136.291"/>
<rect x="980.694" y="423.334" fill="#009FE3" stroke="#000000" stroke-width="2" stroke-miterlimit="10" width="74.205" height="136.291"/>
<rect x="1260.953" y="714.166" fill="#3AAA35" stroke="#000000" stroke-width="2" stroke-miterlimit="10" width="76.12" height="136.293"/>
<rect x="1287.556" y="567.5" fill="#3AAA35" stroke="#000000" stroke-width="2" stroke-miterlimit="10" width="74.204" height="136.291"/>
<rect x="1102.249" y="422.5" fill="#3AAA35" stroke="#000000" stroke-width="2" stroke-miterlimit="10" width="72.151" height="136.291"/>
<rect x="1608.585" y="713.334" fill="#E30613" stroke="#000000" stroke-width="2" stroke-miterlimit="10" width="74.205" height="136.291"/>
<rect x="1410.796" y="566.668" fill="#E30613" stroke="#000000" stroke-width="2" stroke-miterlimit="10" width="72.151" height="136.291"/>
<rect x="1445.912" y="421.667" fill="#E30613" stroke="#000000" stroke-width="2" stroke-miterlimit="10" width="76.12" height="136.292"/>
<use xlink:href="#Flèche_26"  width="45.72" height="26.28" x="-22.86" y="-13.14" transform="matrix(0 1.9113 1.9113 0 934.583 359.165)" overflow="visible"/>
<use xlink:href="#Flèche_26"  width="45.72" height="26.28" x="-22.86" y="-13.14" transform="matrix(0 1.9113 1.9113 0 1226.4863 350.0757)" overflow="visible"/>
<use xlink:href="#Flèche_26"  width="45.72" height="26.28" x="-22.86" y="-13.14" transform="matrix(0 1.9113 1.9113 0 1511 351.165)" overflow="visible"/>
<line fill="none" stroke="#000000" stroke-width="2" stroke-miterlimit="10" x1="1054.898" y1="370.832" x2="1196.334" y2="928.332"/>
<line fill="none" stroke="#000000" stroke-width="2" stroke-miterlimit="10" x1="1324.449" y1="370.833" x2="1465.885" y2="928.332"/>
<rect x="248.667" y="1020.667" fill="none" width="90" height="28.333"/>
<text transform="matrix(1 0 0 1 248.6665 1037.707)" font-family="'MyriadPro-Regular'" font-size="24">16</text>
<rect x="487" y="1014" fill="none" width="86.667" height="36.667"/>
<text transform="matrix(1 0 0 1 487 1031.04)" font-family="'MyriadPro-Regular'" font-size="24">8</text>
<rect x="720.333" y="1019" fill="none" width="88.333" height="26.667"/>
<text transform="matrix(1 0 0 1 720.3335 1036.04)" font-family="'MyriadPro-Regular'" font-size="24">16</text>
<rect x="142" y="649" fill="none" width="81.667" height="30"/>
<text transform="matrix(1 0 0 1 142 666.04)" font-family="'MyriadPro-Regular'" font-size="24">8</text>
<rect x="67" y="879" fill="none" width="75" height="91.667"/>
<text transform="matrix(1 0 0 1 67 896.04)" font-family="'MyriadPro-Regular'" font-size="24">A</text>
<rect x="40.333" y="517.333" fill="none" width="41.667" height="71.667"/>
<text transform="matrix(1 0 0 1 40.3335 534.373)" font-family="'MyriadPro-Regular'" font-size="24">B</text>
<rect x="997" y="1024" fill="none" width="100" height="45"/>
<text transform="matrix(1 0 0 1 997 1041.04)" font-family="'MyriadPro-Regular'" font-size="24">13 tinsi</text>
<rect x="15.337" y="155.334" fill="none" width="41.666" height="71.667"/>
<text transform="matrix(1 0 0 1 15.3364 172.3735)" font-family="'MyriadPro-Regular'" font-size="24">C</text>
<rect x="203" y="517.417" fill="none" width="75" height="85"/>
<text transform="matrix(1 0 0 1 202.9976 560.0146)" font-family="'MyriadPro-Regular'" font-size="60">B1</text>
<rect x="415.667" y="517.417" fill="none" width="85" height="100"/>
<text transform="matrix(1 0 0 1 415.6636 560.0146)" font-family="'MyriadPro-Regular'" font-size="60">B2</text>
<rect x="674.333" y="513.25" fill="none" width="96.666" height="93.334"/>
<text transform="matrix(1 0 0 1 674.3296 555.8477)" font-family="'MyriadPro-Regular'" font-size="60">B3</text>
<rect x="131.667" y="114.5" fill="none" width="75" height="85"/>
<text transform="matrix(1 0 0 1 131.6646 157.0986)" font-family="'MyriadPro-Regular'" font-size="60">C1</text>
<rect x="344.334" y="114.5" fill="none" width="85" height="100"/>
<text transform="matrix(1 0 0 1 344.3306 157.0986)" font-family="'MyriadPro-Regular'" font-size="60">C2</text>
<rect x="603" y="110.333" fill="none" width="96.666" height="93.334"/>
<text transform="matrix(1 0 0 1 602.9966 152.9316)" font-family="'MyriadPro-Regular'" font-size="60">C3</text>
<rect x="427" y="659" fill="none" width="50" height="40"/>
<text transform="matrix(1 0 0 1 427 676.04)" font-family="'MyriadPro-Regular'" font-size="24">24</text>
<rect x="700.166" y="659" fill="none" width="45" height="40"/>
<text transform="matrix(1 0 0 1 700.166 676.04)" font-family="'MyriadPro-Regular'" font-size="24">8</text>
<rect x="138.333" y="299.667" fill="none" width="45" height="33.333"/>
<text transform="matrix(1 0 0 1 138.333 316.707)" font-family="'MyriadPro-Regular'" font-size="24">20</text>
<rect x="628.833" y="299.667" fill="none" width="45" height="33.333"/>
<text transform="matrix(1 0 0 1 628.833 316.707)" font-family="'MyriadPro-Regular'" font-size="24">20</text>
<rect x="393.167" y="299.667" fill="none" width="45" height="33.333"/>
<text transform="matrix(1 0 0 1 393.167 316.707)" font-family="'MyriadPro-Regular'" font-size="24">20</text>
<line fill="none" stroke="#000000" stroke-miterlimit="10" x1="452" y1="573.334" x2="278.002" y2="851.667"/>
</svg>
